<?xml version="1.0" encoding="utf-8"?>
<!-- Generator: Adobe Illustrator 21.0.2, SVG Export Plug-In . SVG Version: 6.00 Build 0)  -->
<svg version="1.1" id="Layer_1" xmlns="http://www.w3.org/2000/svg" xmlns:xlink="http://www.w3.org/1999/xlink" x="0px" y="0px"
	 viewBox="0 0 972 1038" style="enable-background:new 0 0 972 1038;" xml:space="preserve">
<style type="text/css">
	.st0{fill:#00B5E2;}
	.st1{fill-rule:evenodd;clip-rule:evenodd;fill:#78BE21;}
	.st2{fill-rule:evenodd;clip-rule:evenodd;fill:#37842F;}
</style>
<path class="st0" d="M475.8,997c-58,0-114.3-11.4-167.3-33.8c-51.2-21.7-97.2-52.7-136.6-92.1c-39.4-39.5-70.4-85.4-92.1-136.7
	C57.4,681.3,46,625,46,567s11.4-114.3,33.8-167.4c21.7-51.2,52.6-97.2,92.1-136.7c39.4-39.5,85.4-70.5,136.6-92.1
	c53-22.4,109.4-33.8,167.3-33.8s114.3,11.4,167.3,33.8c51.2,21.7,97.2,52.7,136.6,92.1c39.4,39.5,70.4,85.4,92.1,136.7
	c22.4,53.1,33.8,109.4,33.8,167.4s-11.4,114.3-33.8,167.4c-21.7,51.2-52.6,97.2-92.1,136.7c-39.4,39.5-85.4,70.5-136.6,92.1
	C590.1,985.6,533.8,997,475.8,997z M475.8,297c-72.1,0-139.8,28.1-190.8,79.1c-51,51-79,118.8-79,190.9c0,72.1,28.1,139.9,79,190.9
	c51,51,118.7,79.1,190.8,79.1c72.1,0,139.8-28.1,190.8-79.1c51-51,79-118.8,79-190.9c0-72.1-28.1-139.9-79-190.9
	C615.7,325.1,547.9,297,475.8,297z"/>
<circle class="st1" cx="418.5" cy="135.5" r="103.5"/>
<path class="st2" d="M521.9,139.4c-15.2-1.6-30.6-2.4-46.1-2.4c-53.9,0-106.4,9.9-156.2,29.3c13.1,42.1,52.4,72.7,98.8,72.7
	C474.3,239,519.8,194.8,521.9,139.4z"/>
</svg>
