<svg id="Layer_1" data-name="Layer 1" xmlns="http://www.w3.org/2000/svg" viewBox="0 0 540 94.08"><defs><style>.cls-1,.cls-3{font-size:71.62px;}.cls-1,.cls-2,.cls-3{fill:#006747;}.cls-1{font-family:OpenSans-Bold, Open Sans;font-weight:700;}.cls-3{font-family:OpenSans, Open Sans;}</style></defs><title>transtrac_logo</title><text class="cls-1" transform="translate(0 73.1)">TransTrack</text><g id="WsPi8i.tif"><path class="cls-2" d="M618.7,263.77a36.7,36.7,0,0,0-8.65-14.53A52.12,52.12,0,0,0,599,240.41a67.1,67.1,0,0,0-13.36-6.16,79,79,0,0,0-12.69-3.16,88.34,88.34,0,0,0-28.18,0,79.67,79.67,0,0,0-13,3.27A66.17,66.17,0,0,0,516.3,242a47.81,47.81,0,0,0-11.42,10.56,33,33,0,0,0-7,17.39,29.6,29.6,0,0,0,.74,9.79,35.83,35.83,0,0,0,8.58,15.55,46.91,46.91,0,0,0,6.33,5.79.38.38,0,0,1,.18.49c-.44,1.45-.79,2.95-1.32,4.37a28,28,0,0,1-6.08,9.24,61.44,61.44,0,0,1-6.44,6c-.1.2-.21.39-.3.58-.36.75-.74,1.48-1.11,2.21,4.88-2.41,9.79-4.77,14.75-7s10.16-4.5,15.33-6.52a2.67,2.67,0,0,1,2.08-.09,76.5,76.5,0,0,0,15.13,3.85c2.71.41,5.44.7,8.19.85a86.7,86.7,0,0,0,13.19-.25,84.06,84.06,0,0,0,11.38-1.85,75,75,0,0,0,12.58-4.14,59.43,59.43,0,0,0,15.54-9.59,42.25,42.25,0,0,0,8.84-10.42,32,32,0,0,0,4.44-13.39A30.06,30.06,0,0,0,618.7,263.77Zm-5.22,21.5a37.64,37.64,0,0,1-9,11.22,55.26,55.26,0,0,1-14.27,8.91,73.43,73.43,0,0,1-15.35,4.77,83.25,83.25,0,0,1-19.42,1.47,81.53,81.53,0,0,1-12.55-1.47,74.58,74.58,0,0,1-12.85-3.7,1.15,1.15,0,0,0-.89,0c-5.68,2.13-11.26,4.52-16.8,7l-.5.22c.49-.73.94-1.37,1.35-2a29.07,29.07,0,0,0,3.94-10.41c.07-.38.13-.77.23-1.15a.37.37,0,0,0-.18-.48,58.18,58.18,0,0,1-5.37-4.43,36.06,36.06,0,0,1-8.52-12,26.81,26.81,0,0,1-2.21-11.79A28.67,28.67,0,0,1,505.84,257,42,42,0,0,1,517,245.59a61.81,61.81,0,0,1,16.68-8.3,74.55,74.55,0,0,1,11.39-2.8,83.63,83.63,0,0,1,16.11-1.1c2.72.07,5.42.26,8.12.6a81.26,81.26,0,0,1,8.87,1.61,70.74,70.74,0,0,1,13.13,4.52,52.44,52.44,0,0,1,16,11,34.23,34.23,0,0,1,7.62,11.75,27,27,0,0,1,1.74,10.74A28,28,0,0,1,613.48,285.27Z" transform="translate(-80 -229.97)"/></g><text class="cls-3" transform="translate(456.5 67.21)">$</text></svg>